{
  "accessors": [
    {
      "bufferView": 2,
      "componentType": 5126,
      "count": 11170,
      "max": [
        19.399997711181641,
        19.399997711181641,
        -0.30296993255615234
      ],
      "min": [
        -19.399997711181641,
        -19.399997711181641,
        -2.6970300674438477
      ],
      "type": "VEC3"
    },
    {
      "bufferView": 2,
      "byteOffset": 134040,
      "componentType": 5126,
      "count": 11170,
      "max": [
        0.9892539381980896,
        0.98925018310546875,
        1
      ],
      "min": [
        -0.9892539381980896,
        -0.9892503023147583,
        -1
      ],
      "type": "VEC3"
    },
    {
      "bufferView": 3,
      "componentType": 5126,
      "count": 11170,
      "max": [
        0.99999958276748657,
        1,
        0.59589302539825439,
        1
      ],
      "min": [
        -0.99999958276748657,
        -0.9999995231628418,
        -0.61106306314468384,
        1
      ],
      "type": "VEC4"
    },
    {
      "bufferView": 1,
      "componentType": 5126,
      "count": 11170,
      "max": [
        0.80327337980270386,
        0.99950003623962402
      ],
      "min": [
        0.00050000002374872565,
        0.00050000002374872565
      ],
      "type": "VEC2"
    },
    {
      "bufferView": 2,
      "byteOffset": 268080,
      "componentType": 5126,
      "count": 11170,
      "max": [
        15.032985687255859,
        15.032984733581543,
        18.205926895141602
      ],
      "min": [
        -15.032984733581543,
        -15.032985687255859,
        -18.205924987792969
      ],
      "type": "VEC3"
    },
    {
      "bufferView": 2,
      "byteOffset": 402120,
      "componentType": 5126,
      "count": 11170,
      "max": [
        1.1512143611907959,
        1.1512153148651123,
        1.9863982200622559
      ],
      "min": [
        -1.1512215137481689,
        -1.1512205600738525,
        -1.9863982200622559
      ],
      "type": "VEC3"
    },
    {
      "bufferView": 2,
      "byteOffset": 536160,
      "componentType": 5126,
      "count": 11170,
      "max": [
        1.2111668586730957,
        1.2111639976501465,
        0.97325432300567627
      ],
      "min": [
        -1.2111639976501465,
        -1.0749435424804688,
        -0.9732556939125061
      ],
      "type": "VEC3"
    },
    {
      "bufferView": 0,
      "componentType": 5125,
      "count": 45312,
      "max": [
        11169
      ],
      "min": [
        0
      ],
      "type": "SCALAR"
    },
    {
      "bufferView": 2,
      "byteOffset": 670200,
      "componentType": 5126,
      "count": 728,
      "max": [
        20,
        20,
        20
      ],
      "min": [
        -20,
        -20,
        -20
      ],
      "type": "VEC3"
    },
    {
      "bufferView": 2,
      "byteOffset": 678936,
      "componentType": 5126,
      "count": 728,
      "max": [
        1,
        1,
        1
      ],
      "min": [
        -1,
        -1,
        -1
      ],
      "type": "VEC3"
    },
    {
      "bufferView": 3,
      "byteOffset": 178720,
      "componentType": 5126,
      "count": 728,
      "max": [
        0.98027318716049194,
        0.98027205467224121,
        0.36569014191627502,
        1
      ],
      "min": [
        -0.98027294874191284,
        -0.98027318716049194,
        -0.36568933725357056,
        1
      ],
      "type": "VEC4"
    },
    {
      "bufferView": 1,
      "byteOffset": 89360,
      "componentType": 5126,
      "count": 728,
      "max": [
        0.99950003623962402,
        0.93525958061218262
      ],
      "min": [
        0.00050000002374872565,
        0.00050000002374872565
      ],
      "type": "VEC2"
    },
    {
      "bufferView": 0,
      "byteOffset": 181248,
      "componentType": 5125,
      "count": 3456,
      "max": [
        727
      ],
      "min": [
        0
      ],
      "type": "SCALAR"
    },
    {
      "bufferView": 2,
      "byteOffset": 687672,
      "componentType": 5126,
      "count": 96,
      "max": [
        21,
        21,
        5
      ],
      "min": [
        -21,
        -21,
        0
      ],
      "type": "VEC3"
    },
    {
      "bufferView": 2,
      "byteOffset": 688824,
      "componentType": 5126,
      "count": 96,
      "max": [
        1,
        1,
        0
      ],
      "min": [
        -1,
        -1,
        0
      ],
      "type": "VEC3"
    },
    {
      "bufferView": 3,
      "byteOffset": 190368,
      "componentType": 5126,
      "count": 96,
      "max": [
        1,
        1,
        0,
        1
      ],
      "min": [
        -1,
        -1,
        0,
        1
      ],
      "type": "VEC4"
    },
    {
      "bufferView": 1,
      "byteOffset": 95184,
      "componentType": 5126,
      "count": 96,
      "max": [
        0.99799996614456177,
        0.99785000085830688
      ],
      "min": [
        0.0020000000949949026,
        0.0020000000949949026
      ],
      "type": "VEC2"
    },
    {
      "bufferView": 0,
      "byteOffset": 195072,
      "componentType": 5125,
      "count": 144,
      "max": [
        95
      ],
      "min": [
        0
      ],
      "type": "SCALAR"
    },
    {
      "bufferView": 4,
      "componentType": 5126,
      "count": 4,
      "max": [
        3.8333332538604736
      ],
      "min": [
        1.9833333492279053
      ],
      "type": "SCALAR"
    },
    {
      "bufferView": 5,
      "componentType": 5126,
      "count": 4,
      "max": [
        1,
        1,
        1
      ],
      "min": [
        0.0099999997764825821,
        0.0099999997764825821,
        0.0099999997764825821
      ],
      "type": "VEC3"
    },
    {
      "bufferView": 4,
      "byteOffset": 16,
      "componentType": 5126,
      "count": 5,
      "max": [
        3.8333332538604736
      ],
      "min": [
        0
      ],
      "type": "SCALAR"
    },
    {
      "bufferView": 5,
      "byteOffset": 48,
      "componentType": 5126,
      "count": 5,
      "max": [
        1,
        1,
        1
      ],
      "min": [
        0.0099999997764825821,
        0.0099999997764825821,
        0.0099999997764825821
      ],
      "type": "VEC3"
    },
    {
      "bufferView": 4,
      "byteOffset": 36,
      "componentType": 5126,
      "count": 233,
      "max": [
        4
      ],
      "min": [
        0
      ],
      "type": "SCALAR"
    },
    {
      "bufferView": 6,
      "componentType": 5126,
      "count": 233,
      "max": [
        0.79947942495346069,
        0.70710676908493042,
        0.70710676908493042,
        0.86235576868057251
      ],
      "min": [
        -0.79958200454711914,
        -0.58337867259979248,
        -0.5,
        -0.4840066134929657
      ],
      "type": "VEC4"
    },
    {
      "bufferView": 4,
      "byteOffset": 968,
      "componentType": 5126,
      "count": 13,
      "max": [
        4
      ],
      "min": [
        0
      ],
      "type": "SCALAR"
    },
    {
      "bufferView": 4,
      "byteOffset": 1020,
      "componentType": 5126,
      "count": 13,
      "max": [
        1
      ],
      "min": [
        0
      ],
      "type": "SCALAR"
    }
  ],
  "animations": [
    {
      "channels": [
        {
          "sampler": 0,
          "target": {
            "node": 5,
            "path": "scale"
          }
        },
        {
          "sampler": 1,
          "target": {
            "node": 8,
            "path": "scale"
          }
        },
        {
          "sampler": 2,
          "target": {
            "node": 10,
            "path": "rotation"
          }
        },
        {
          "sampler": 3,
          "target": {
            "node": 7,
            "path": "weights"
          }
        }
      ],
      "name": "Take 001",
      "samplers": [
        {
          "input": 18,
          "interpolation": "LINEAR",
          "output": 19
        },
        {
          "input": 20,
          "interpolation": "LINEAR",
          "output": 21
        },
        {
          "input": 22,
          "interpolation": "LINEAR",
          "output": 23
        },
        {
          "input": 24,
          "interpolation": "LINEAR",
          "output": 25
        }
      ]
    }
  ],
  "asset": {
    "extras": {
      "author": "Javier Da Rosa (https://sketchfab.com/BeakBlack)",
      "license": "CC-BY-4.0 (http://creativecommons.org/licenses/by/4.0/)",
      "source": "https://sketchfab.com/models/58fb90072d15449e8e842ab06dd681c4",
      "title": "Allagi of Fate (beta2)"
    },
    "generator": "Sketchfab-3.18.7",
    "version": "2.0"
  },
  "bufferViews": [
    {
      "buffer": 0,
      "byteLength": 195648,
      "byteOffset": 0,
      "name": "floatBufferViews",
      "target": 34963
    },
    {
      "buffer": 0,
      "byteLength": 95952,
      "byteOffset": 195648,
      "byteStride": 8,
      "name": "floatBufferViews",
      "target": 34962
    },
    {
      "buffer": 0,
      "byteLength": 689976,
      "byteOffset": 291600,
      "byteStride": 12,
      "name": "floatBufferViews",
      "target": 34962
    },
    {
      "buffer": 0,
      "byteLength": 191904,
      "byteOffset": 981576,
      "byteStride": 16,
      "name": "floatBufferViews",
      "target": 34962
    },
    {
      "buffer": 0,
      "byteLength": 1072,
      "byteOffset": 1173480,
      "name": "floatBufferViews"
    },
    {
      "buffer": 0,
      "byteLength": 108,
      "byteOffset": 1174552,
      "byteStride": 12,
      "name": "floatBufferViews"
    },
    {
      "buffer": 0,
      "byteLength": 3728,
      "byteOffset": 1174660,
      "byteStride": 16,
      "name": "floatBufferViews"
    }
  ],
  "buffers": [
    {
      "byteLength": 1178388,
      "uri": "scene.bin"
    }
  ],
  "images": [
    {
      "uri": "textures/03_-_Default_baseColor.png"
    },
    {
      "uri": "textures/03_-_Default_emissive.png"
    },
    {
      "uri": "textures/02_-_Default_baseColor.png"
    },
    {
      "uri": "textures/02_-_Default_normal.png"
    },
    {
      "uri": "textures/02_-_Default_metallicRoughness.png"
    },
    {
      "uri": "textures/02_-_Default_emissive.png"
    },
    {
      "uri": "textures/01_-_Default_baseColor.png"
    },
    {
      "uri": "textures/01_-_Default_normal.png"
    },
    {
      "uri": "textures/01_-_Default_metallicRoughness.png"
    },
    {
      "uri": "textures/01_-_Default_emissive.png"
    }
  ],
  "materials": [
    {
      "doubleSided": true,
      "emissiveFactor": [
        1,
        1,
        1
      ],
      "emissiveTexture": {
        "index": 9,
        "texCoord": 0
      },
      "name": "01_-_Default",
      "normalTexture": {
        "index": 7,
        "scale": 1,
        "texCoord": 0
      },
      "pbrMetallicRoughness": {
        "baseColorFactor": [
          1,
          1,
          1,
          1
        ],
        "baseColorTexture": {
          "index": 6,
          "texCoord": 0
        },
        "metallicFactor": 1,
        "metallicRoughnessTexture": {
          "index": 8,
          "texCoord": 0
        },
        "roughnessFactor": 1
      }
    },
    {
      "doubleSided": true,
      "emissiveFactor": [
        1,
        1,
        1
      ],
      "emissiveTexture": {
        "index": 5,
        "texCoord": 0
      },
      "name": "02_-_Default",
      "normalTexture": {
        "index": 3,
        "scale": 1,
        "texCoord": 0
      },
      "pbrMetallicRoughness": {
        "baseColorFactor": [
          1,
          1,
          1,
          1
        ],
        "baseColorTexture": {
          "index": 2,
          "texCoord": 0
        },
        "metallicFactor": 1,
        "metallicRoughnessTexture": {
          "index": 4,
          "texCoord": 0
        },
        "roughnessFactor": 1
      }
    },
    {
      "alphaMode": "BLEND",
      "doubleSided": true,
      "emissiveFactor": [
        1,
        1,
        1
      ],
      "emissiveTexture": {
        "index": 1,
        "texCoord": 0
      },
      "name": "03_-_Default",
      "pbrMetallicRoughness": {
        "baseColorFactor": [
          0,
          0,
          0,
          1
        ],
        "baseColorTexture": {
          "index": 0,
          "texCoord": 0
        },
        "metallicFactor": 0,
        "roughnessFactor": 1
      }
    }
  ],
  "meshes": [
    {
      "name": "0",
      "primitives": [
        {
          "attributes": {
            "NORMAL": 1,
            "POSITION": 0,
            "TANGENT": 2,
            "TEXCOORD_0": 3
          },
          "indices": 7,
          "material": 0,
          "mode": 4,
          "targets": [
            {
              "NORMAL": 5,
              "POSITION": 4,
              "TANGENT": 6
            }
          ]
        }
      ],
      "weights": [
        0
      ]
    },
    {
      "name": "GeoSphere001_02 - Default_0",
      "primitives": [
        {
          "attributes": {
            "NORMAL": 9,
            "POSITION": 8,
            "TANGENT": 10,
            "TEXCOORD_0": 11
          },
          "indices": 12,
          "material": 1,
          "mode": 4
        }
      ]
    },
    {
      "name": "Cylinder001_03 - Default_0",
      "primitives": [
        {
          "attributes": {
            "NORMAL": 14,
            "POSITION": 13,
            "TANGENT": 15,
            "TEXCOORD_0": 16
          },
          "indices": 17,
          "material": 2,
          "mode": 4
        }
      ]
    }
  ],
  "nodes": [
    {
      "children": [
        1
      ],
      "name": "RootNode (gltf orientation matrix)",
      "rotation": [
        -0.70710678118654746,
        -0,
        -0,
        0.70710678118654757
      ]
    },
    {
      "children": [
        2
      ],
      "name": "RootNode (model correction matrix)"
    },
    {
      "children": [
        3
      ],
      "matrix": [
        1,
        0,
        0,
        0,
        0,
        0,
        1,
        0,
        0,
        -1,
        0,
        0,
        0,
        0,
        0,
        1
      ],
      "name": "1828d27ac81c45e1934a77854e5fe3f0.fbx"
    },
    {
      "children": [
        4
      ],
      "name": ""
    },
    {
      "children": [
        5,
        8,
        10
      ],
      "name": "RootNode"
    },
    {
      "children": [
        6
      ],
      "name": "Shape001",
      "rotation": [
        -0.7071068286895752,
        -0,
        0,
        0.7071068286895752
      ],
      "translation": [
        -5.9604644775390625e-08,
        0,
        0
      ]
    },
    {
      "children": [
        7
      ],
      "matrix": [
        1,
        0,
        -0,
        0,
        0,
        1,
        0,
        0,
        0,
        0,
        1,
        0,
        0,
        0,
        1.5,
        1
      ],
      "name": ""
    },
    {
      "mesh": 0,
      "name": "0"
    },
    {
      "children": [
        9
      ],
      "name": "GeoSphere001",
      "rotation": [
        -0.7071068286895752,
        -0,
        0,
        0.7071068286895752
      ],
      "scale": [
        0.0099999997764825821,
        0.0099999997764825821,
        0.0099999997764825821
      ]
    },
    {
      "mesh": 1,
      "name": "GeoSphere001_02 - Default_0"
    },
    {
      "children": [
        11
      ],
      "name": "Cylinder001",
      "rotation": [
        -0.7071068286895752,
        -0,
        0,
        0.7071068286895752
      ],
      "translation": [
        5.9604644775390625e-08,
        0,
        -7.4505805969238281e-09
      ]
    },
    {
      "children": [
        12
      ],
      "matrix": [
        1,
        0,
        -0,
        0,
        0,
        1,
        0,
        0,
        0,
        0,
        1,
        0,
        0,
        0,
        -2.5,
        1
      ],
      "name": ""
    },
    {
      "mesh": 2,
      "name": "Cylinder001_03 - Default_0"
    }
  ],
  "samplers": [
    {
      "magFilter": 9729,
      "minFilter": 9987,
      "wrapS": 10497,
      "wrapT": 10497
    }
  ],
  "scene": 0,
  "scenes": [
    {
      "name": "OSG_Scene",
      "nodes": [
        0
      ]
    }
  ],
  "textures": [
    {
      "sampler": 0,
      "source": 0
    },
    {
      "sampler": 0,
      "source": 1
    },
    {
      "sampler": 0,
      "source": 2
    },
    {
      "sampler": 0,
      "source": 3
    },
    {
      "sampler": 0,
      "source": 4
    },
    {
      "sampler": 0,
      "source": 5
    },
    {
      "sampler": 0,
      "source": 6
    },
    {
      "sampler": 0,
      "source": 7
    },
    {
      "sampler": 0,
      "source": 8
    },
    {
      "sampler": 0,
      "source": 9
    }
  ]
}

