{
  "accessors": [
    {
      "bufferView": 2,
      "componentType": 5126,
      "count": 65534,
      "max": [
        1271.4781494140625,
        249.32363891601562,
        41.641098022460938
      ],
      "min": [
        -211.06307983398438,
        -250.14297485351562,
        -461.61920166015625
      ],
      "type": "VEC3"
    },
    {
      "bufferView": 2,
      "byteOffset": 786408,
      "componentType": 5126,
      "count": 65534,
      "max": [
        1,
        1,
        1
      ],
      "min": [
        -1,
        -1,
        -1
      ],
      "type": "VEC3"
    },
    {
      "bufferView": 3,
      "componentType": 5126,
      "count": 65534,
      "max": [
        1,
        1,
        1,
        1
      ],
      "min": [
        -1,
        -1,
        -1,
        1
      ],
      "type": "VEC4"
    },
    {
      "bufferView": 1,
      "componentType": 5126,
      "count": 65534,
      "max": [
        0.948009192943573,
        0.99746644496917725
      ],
      "min": [
        0.0024980001617223024,
        0.0024980001617223024
      ],
      "type": "VEC2"
    },
    {
      "bufferView": 0,
      "componentType": 5125,
      "count": 97074,
      "max": [
        65533
      ],
      "min": [
        0
      ],
      "type": "SCALAR"
    },
    {
      "bufferView": 2,
      "byteOffset": 1572816,
      "componentType": 5126,
      "count": 65532,
      "max": [
        1271.566650390625,
        249.32365417480469,
        41.641006469726562
      ],
      "min": [
        296.54608154296875,
        -248.87007141113281,
        -397.0531005859375
      ],
      "type": "VEC3"
    },
    {
      "bufferView": 2,
      "byteOffset": 2359200,
      "componentType": 5126,
      "count": 65532,
      "max": [
        1,
        1,
        1
      ],
      "min": [
        -1,
        -1,
        -1
      ],
      "type": "VEC3"
    },
    {
      "bufferView": 3,
      "byteOffset": 1048544,
      "componentType": 5126,
      "count": 65532,
      "max": [
        1,
        1,
        1,
        1
      ],
      "min": [
        -1,
        -1,
        -1,
        -1
      ],
      "type": "VEC4"
    },
    {
      "bufferView": 1,
      "byteOffset": 524272,
      "componentType": 5126,
      "count": 65532,
      "max": [
        0.54989153146743774,
        0.99750196933746338
      ],
      "min": [
        0.0025290530174970627,
        0.29367831349372864
      ],
      "type": "VEC2"
    },
    {
      "bufferView": 0,
      "byteOffset": 388296,
      "componentType": 5125,
      "count": 165792,
      "max": [
        65531
      ],
      "min": [
        0
      ],
      "type": "SCALAR"
    },
    {
      "bufferView": 2,
      "byteOffset": 3145584,
      "componentType": 5126,
      "count": 65534,
      "max": [
        341.65213012695312,
        -179.86894226074219,
        -55.233917236328125
      ],
      "min": [
        319.68661499023438,
        -193.41923522949219,
        -71.07366943359375
      ],
      "type": "VEC3"
    },
    {
      "bufferView": 2,
      "byteOffset": 3931992,
      "componentType": 5126,
      "count": 65534,
      "max": [
        1,
        1,
        1
      ],
      "min": [
        -1,
        -1,
        -1
      ],
      "type": "VEC3"
    },
    {
      "bufferView": 3,
      "byteOffset": 2097056,
      "componentType": 5126,
      "count": 65534,
      "max": [
        1,
        1,
        1,
        1
      ],
      "min": [
        -1,
        -1,
        -1,
        -1
      ],
      "type": "VEC4"
    },
    {
      "bufferView": 1,
      "byteOffset": 1048528,
      "componentType": 5126,
      "count": 65534,
      "max": [
        0.54989153146743774,
        0.52094006538391113
      ],
      "min": [
        0.51841753721237183,
        0.49040117859840393
      ],
      "type": "VEC2"
    },
    {
      "bufferView": 0,
      "byteOffset": 1051464,
      "componentType": 5125,
      "count": 98565,
      "max": [
        65533
      ],
      "min": [
        0
      ],
      "type": "SCALAR"
    },
    {
      "bufferView": 2,
      "byteOffset": 4718400,
      "componentType": 5126,
      "count": 65532,
      "max": [
        341.36770629882812,
        -180.402099609375,
        -50.49932861328125
      ],
      "min": [
        319.97103881835938,
        -192.66926574707031,
        -70.538604736328125
      ],
      "type": "VEC3"
    },
    {
      "bufferView": 2,
      "byteOffset": 5504784,
      "componentType": 5126,
      "count": 65532,
      "max": [
        1,
        0.99950140714645386,
        0.99999117851257324
      ],
      "min": [
        -1,
        -0.99997001886367798,
        -0.99992078542709351
      ],
      "type": "VEC3"
    },
    {
      "bufferView": 3,
      "byteOffset": 3145600,
      "componentType": 5126,
      "count": 65532,
      "max": [
        1,
        0.99996930360794067,
        0.9999995231628418,
        1
      ],
      "min": [
        -1,
        -1,
        -1,
        -1
      ],
      "type": "VEC4"
    },
    {
      "bufferView": 1,
      "byteOffset": 1572800,
      "componentType": 5126,
      "count": 65532,
      "max": [
        0.54989337921142578,
        0.52198803424835205
      ],
      "min": [
        0.51834380626678467,
        0.4903864860534668
      ],
      "type": "VEC2"
    },
    {
      "bufferView": 0,
      "byteOffset": 1445724,
      "componentType": 5125,
      "count": 88503,
      "max": [
        65531
      ],
      "min": [
        0
      ],
      "type": "SCALAR"
    },
    {
      "bufferView": 2,
      "byteOffset": 6291168,
      "componentType": 5126,
      "count": 3558,
      "max": [
        337.41949462890625,
        -187.86012268066406,
        -50.731643676757812
      ],
      "min": [
        320.99053955078125,
        -192.66926574707031,
        -51.961315155029297
      ],
      "type": "VEC3"
    },
    {
      "bufferView": 2,
      "byteOffset": 6333864,
      "componentType": 5126,
      "count": 3558,
      "max": [
        1,
        0.99946862459182739,
        0.99862945079803467
      ],
      "min": [
        -1,
        -0.99623101949691772,
        -0.99899303913116455
      ],
      "type": "VEC3"
    },
    {
      "bufferView": 3,
      "byteOffset": 4194112,
      "componentType": 5126,
      "count": 3558,
      "max": [
        1,
        0.99899297952651978,
        0.99999988079071045,
        1
      ],
      "min": [
        -1,
        -0.99862939119338989,
        -0.99999982118606567,
        -1
      ],
      "type": "VEC4"
    },
    {
      "bufferView": 1,
      "byteOffset": 2097056,
      "componentType": 5126,
      "count": 3558,
      "max": [
        0.54988902807235718,
        0.51990944147109985
      ],
      "min": [
        0.51838809251785278,
        0.49041140079498291
      ],
      "type": "VEC2"
    },
    {
      "bufferView": 0,
      "byteOffset": 1799736,
      "componentType": 5125,
      "count": 7728,
      "max": [
        3557
      ],
      "min": [
        0
      ],
      "type": "SCALAR"
    },
    {
      "bufferView": 2,
      "byteOffset": 6376560,
      "componentType": 5126,
      "count": 32,
      "max": [
        869.8990478515625,
        202.03887939453125,
        -122.844970703125
      ],
      "min": [
        198.00167846679688,
        162.66876220703125,
        -459.8289794921875
      ],
      "type": "VEC3"
    },
    {
      "bufferView": 2,
      "byteOffset": 6376944,
      "componentType": 5126,
      "count": 32,
      "max": [
        1,
        0.9999958872795105,
        1
      ],
      "min": [
        -1,
        -1,
        -1
      ],
      "type": "VEC3"
    },
    {
      "bufferView": 3,
      "byteOffset": 4251040,
      "componentType": 5126,
      "count": 32,
      "max": [
        1,
        1.4498439213639358e-06,
        0,
        1
      ],
      "min": [
        -1,
        -1.1104312989118625e-06,
        -1,
        1
      ],
      "type": "VEC4"
    },
    {
      "bufferView": 1,
      "byteOffset": 2125520,
      "componentType": 5126,
      "count": 32,
      "max": [
        0.48809865117073059,
        0.9974524974822998
      ],
      "min": [
        0.040482465177774429,
        0.80421775579452515
      ],
      "type": "VEC2"
    },
    {
      "bufferView": 0,
      "byteOffset": 1830648,
      "componentType": 5125,
      "count": 60,
      "max": [
        31
      ],
      "min": [
        0
      ],
      "type": "SCALAR"
    },
    {
      "bufferView": 2,
      "byteOffset": 6377328,
      "componentType": 5126,
      "count": 3016,
      "max": [
        781.0509033203125,
        167.5357666015625,
        -39.624961853027344
      ],
      "min": [
        283.981689453125,
        79.917236328125,
        -127.12246704101562
      ],
      "type": "VEC3"
    },
    {
      "bufferView": 2,
      "byteOffset": 6413520,
      "componentType": 5126,
      "count": 3016,
      "max": [
        1,
        1,
        1
      ],
      "min": [
        -1,
        -1,
        -1
      ],
      "type": "VEC3"
    },
    {
      "bufferView": 3,
      "byteOffset": 4251552,
      "componentType": 5126,
      "count": 3016,
      "max": [
        1,
        1,
        2.5919280233210884e-06,
        1
      ],
      "min": [
        -1,
        -1,
        -1,
        1
      ],
      "type": "VEC4"
    },
    {
      "bufferView": 1,
      "byteOffset": 2125776,
      "componentType": 5126,
      "count": 3016,
      "max": [
        0.702381432056427,
        0.99638581275939941
      ],
      "min": [
        0.0025904013309627771,
        0.2683754563331604
      ],
      "type": "VEC2"
    },
    {
      "bufferView": 0,
      "byteOffset": 1830888,
      "componentType": 5125,
      "count": 3588,
      "max": [
        3015
      ],
      "min": [
        0
      ],
      "type": "SCALAR"
    },
    {
      "bufferView": 2,
      "byteOffset": 6449712,
      "componentType": 5126,
      "count": 22470,
      "max": [
        623.27783203125,
        260.16030883789062,
        -29.420555114746094
      ],
      "min": [
        448.9127197265625,
        66.227096557617188,
        -39.263076782226562
      ],
      "type": "VEC3"
    },
    {
      "bufferView": 2,
      "byteOffset": 6719352,
      "componentType": 5126,
      "count": 22470,
      "max": [
        1,
        1,
        1
      ],
      "min": [
        -1,
        -1,
        -1
      ],
      "type": "VEC3"
    },
    {
      "bufferView": 3,
      "byteOffset": 4299808,
      "componentType": 5126,
      "count": 22470,
      "max": [
        1,
        1,
        1,
        1
      ],
      "min": [
        -0.99999970197677612,
        -1,
        -1,
        -1
      ],
      "type": "VEC4"
    },
    {
      "bufferView": 1,
      "byteOffset": 2149904,
      "componentType": 5126,
      "count": 22470,
      "max": [
        0.93812012672424316,
        0.99630874395370483
      ],
      "min": [
        0.0024980001617223024,
        0.2683754563331604
      ],
      "type": "VEC2"
    },
    {
      "bufferView": 0,
      "byteOffset": 1845240,
      "componentType": 5125,
      "count": 64620,
      "max": [
        22469
      ],
      "min": [
        0
      ],
      "type": "SCALAR"
    }
  ],
  "asset": {
    "extras": {
      "author": "David Zager (https://sketchfab.com/zager_dk)",
      "license": "CC-BY-NC-4.0 (http://creativecommons.org/licenses/by-nc/4.0/)",
      "source": "https://sketchfab.com/models/425f0c5a866c493bae61f4b552e706f8",
      "title": "Tuborg Fest Scene"
    },
    "generator": "Sketchfab-3.18.7",
    "version": "2.0"
  },
  "bufferViews": [
    {
      "buffer": 0,
      "byteLength": 2103720,
      "byteOffset": 0,
      "name": "floatBufferViews",
      "target": 34963
    },
    {
      "buffer": 0,
      "byteLength": 2329664,
      "byteOffset": 2103720,
      "byteStride": 8,
      "name": "floatBufferViews",
      "target": 34962
    },
    {
      "buffer": 0,
      "byteLength": 6988992,
      "byteOffset": 4433384,
      "byteStride": 12,
      "name": "floatBufferViews",
      "target": 34962
    },
    {
      "buffer": 0,
      "byteLength": 4659328,
      "byteOffset": 11422376,
      "byteStride": 16,
      "name": "floatBufferViews",
      "target": 34962
    }
  ],
  "buffers": [
    {
      "byteLength": 16081704,
      "uri": "scene.bin"
    }
  ],
  "images": [
    {
      "uri": "textures/baked_Material_2097632422_baseColor.jpeg"
    }
  ],
  "materials": [
    {
      "doubleSided": true,
      "emissiveFactor": [
        0,
        0,
        0
      ],
      "name": "baked_Material_2097632422",
      "pbrMetallicRoughness": {
        "baseColorFactor": [
          1,
          1,
          1,
          1
        ],
        "baseColorTexture": {
          "index": 0,
          "texCoord": 0
        },
        "metallicFactor": 0,
        "roughnessFactor": 0.59999999999999998
      }
    }
  ],
  "meshes": [
    {
      "name": "Plane034_baked_Material #2097632422_0",
      "primitives": [
        {
          "attributes": {
            "NORMAL": 1,
            "POSITION": 0,
            "TANGENT": 2,
            "TEXCOORD_0": 3
          },
          "indices": 4,
          "material": 0,
          "mode": 4
        }
      ]
    },
    {
      "name": "Plane034_baked_Material #2097632422_0",
      "primitives": [
        {
          "attributes": {
            "NORMAL": 6,
            "POSITION": 5,
            "TANGENT": 7,
            "TEXCOORD_0": 8
          },
          "indices": 9,
          "material": 0,
          "mode": 4
        }
      ]
    },
    {
      "name": "Plane034_baked_Material #2097632422_0",
      "primitives": [
        {
          "attributes": {
            "NORMAL": 11,
            "POSITION": 10,
            "TANGENT": 12,
            "TEXCOORD_0": 13
          },
          "indices": 14,
          "material": 0,
          "mode": 4
        }
      ]
    },
    {
      "name": "Plane034_baked_Material #2097632422_0",
      "primitives": [
        {
          "attributes": {
            "NORMAL": 16,
            "POSITION": 15,
            "TANGENT": 17,
            "TEXCOORD_0": 18
          },
          "indices": 19,
          "material": 0,
          "mode": 4
        }
      ]
    },
    {
      "name": "Plane034_baked_Material #2097632422_0",
      "primitives": [
        {
          "attributes": {
            "NORMAL": 21,
            "POSITION": 20,
            "TANGENT": 22,
            "TEXCOORD_0": 23
          },
          "indices": 24,
          "material": 0,
          "mode": 4
        }
      ]
    },
    {
      "name": "Object001_baked_Material #2097632422_0",
      "primitives": [
        {
          "attributes": {
            "NORMAL": 26,
            "POSITION": 25,
            "TANGENT": 27,
            "TEXCOORD_0": 28
          },
          "indices": 29,
          "material": 0,
          "mode": 4
        }
      ]
    },
    {
      "name": "Object003_baked_Material #2097632422_0",
      "primitives": [
        {
          "attributes": {
            "NORMAL": 31,
            "POSITION": 30,
            "TANGENT": 32,
            "TEXCOORD_0": 33
          },
          "indices": 34,
          "material": 0,
          "mode": 4
        }
      ]
    },
    {
      "name": "Object002_baked_Material #2097632422_0",
      "primitives": [
        {
          "attributes": {
            "NORMAL": 36,
            "POSITION": 35,
            "TANGENT": 37,
            "TEXCOORD_0": 38
          },
          "indices": 39,
          "material": 0,
          "mode": 4
        }
      ]
    }
  ],
  "nodes": [
    {
      "children": [
        1
      ],
      "name": "RootNode (gltf orientation matrix)",
      "rotation": [
        -0.70710678118654746,
        -0,
        -0,
        0.70710678118654757
      ]
    },
    {
      "children": [
        2
      ],
      "name": "RootNode (model correction matrix)"
    },
    {
      "children": [
        3
      ],
      "matrix": [
        1,
        0,
        0,
        0,
        0,
        0,
        1,
        0,
        0,
        -1,
        0,
        0,
        0,
        0,
        0,
        1
      ],
      "name": "Tuborg.FBX"
    },
    {
      "children": [
        4
      ],
      "name": "RootNode"
    },
    {
      "children": [
        5,
        12,
        15,
        18
      ],
      "matrix": [
        1,
        0,
        0,
        0,
        0,
        2.2204460492503131e-16,
        -1,
        0,
        0,
        1,
        2.2204460492503131e-16,
        0,
        -2.667572021484375,
        253.12322998046875,
        -15.017135620117188,
        1
      ],
      "name": "Group001"
    },
    {
      "children": [
        6
      ],
      "matrix": [
        1,
        0,
        0,
        0,
        0,
        -1.6292068472090193e-07,
        0.99999999999998679,
        0,
        0,
        -0.99999999999998679,
        -1.6292068472090193e-07,
        0,
        -3.0517578125e-05,
        -1.52587890625e-05,
        -5.418304443359375,
        1
      ],
      "name": "Plane034"
    },
    {
      "children": [
        7,
        8,
        9,
        10,
        11
      ],
      "matrix": [
        1,
        0,
        -0,
        0,
        0,
        1,
        0,
        0,
        0,
        0,
        1,
        0,
        -530.25177001953125,
        0.40965640544891357,
        209.98904418945312,
        1
      ],
      "name": ""
    },
    {
      "mesh": 0,
      "name": "Plane034_baked_Material #2097632422_0"
    },
    {
      "mesh": 1,
      "name": "Plane034_baked_Material #2097632422_0"
    },
    {
      "mesh": 2,
      "name": "Plane034_baked_Material #2097632422_0"
    },
    {
      "mesh": 3,
      "name": "Plane034_baked_Material #2097632422_0"
    },
    {
      "mesh": 4,
      "name": "Plane034_baked_Material #2097632422_0"
    },
    {
      "children": [
        13
      ],
      "matrix": [
        1,
        0,
        0,
        0,
        0,
        -1.6292068472090193e-07,
        0.99999999999998679,
        0,
        0,
        -0.99999999999998679,
        -1.6292068472090193e-07,
        0,
        2.6612417697906494,
        249.82435607910156,
        157.55133056640625,
        1
      ],
      "name": "Object001"
    },
    {
      "children": [
        14
      ],
      "matrix": [
        1,
        0,
        -0,
        0,
        0,
        1,
        0,
        0,
        0,
        0,
        1,
        0,
        -532.91302490234375,
        -162.55995178222656,
        459.81344604492188,
        1
      ],
      "name": ""
    },
    {
      "mesh": 5,
      "name": "Object001_baked_Material #2097632422_0"
    },
    {
      "children": [
        16
      ],
      "matrix": [
        1,
        0,
        0,
        0,
        0,
        -1.6292068472090193e-07,
        0.99999999999998679,
        0,
        0,
        -0.99999999999998679,
        -1.6292068472090193e-07,
        0,
        2.2644996643066406,
        -126.61536407470703,
        118.71783447265625,
        1
      ],
      "name": "Object003"
    },
    {
      "children": [
        17
      ],
      "matrix": [
        1,
        0,
        -0,
        0,
        0,
        1,
        0,
        0,
        0,
        0,
        1,
        0,
        -532.51629638671875,
        -123.72651672363281,
        83.37371826171875,
        1
      ],
      "name": ""
    },
    {
      "mesh": 6,
      "name": "Object003_baked_Material #2097632422_0"
    },
    {
      "children": [
        19
      ],
      "matrix": [
        1,
        0,
        0,
        0,
        0,
        -1.6292068472090193e-07,
        0.99999999999998679,
        0,
        0,
        -0.99999999999998679,
        -1.6292068472090193e-07,
        0,
        5.843475341796875,
        -175.64726257324219,
        158.18499755859375,
        1
      ],
      "name": "Object002"
    },
    {
      "children": [
        20
      ],
      "matrix": [
        1,
        0,
        -0,
        0,
        0,
        1,
        0,
        0,
        0,
        0,
        1,
        0,
        -536.09527587890625,
        -163.19369506835938,
        34.341823577880859,
        1
      ],
      "name": ""
    },
    {
      "mesh": 7,
      "name": "Object002_baked_Material #2097632422_0"
    }
  ],
  "samplers": [
    {
      "magFilter": 9729,
      "minFilter": 9987,
      "wrapS": 10497,
      "wrapT": 10497
    }
  ],
  "scene": 0,
  "scenes": [
    {
      "name": "OSG_Scene",
      "nodes": [
        0
      ]
    }
  ],
  "textures": [
    {
      "sampler": 0,
      "source": 0
    }
  ]
}

